<?xml version="1.0" encoding="UTF-8" standalone="no"?>
<!-- Created with Inkscape (http://www.inkscape.org/) -->

<svg
   xmlns:dc="http://purl.org/dc/elements/1.1/"
   xmlns:cc="http://creativecommons.org/ns#"
   xmlns:rdf="http://www.w3.org/1999/02/22-rdf-syntax-ns#"
   xmlns:svg="http://www.w3.org/2000/svg"
   xmlns="http://www.w3.org/2000/svg"
   xmlns:sodipodi="http://sodipodi.sourceforge.net/DTD/sodipodi-0.dtd"
   xmlns:inkscape="http://www.inkscape.org/namespaces/inkscape"
   version="1.1"
   id="svg815"
   width="164"
   height="333.33334"
   viewBox="0 0 164 333.33334"
   sodipodi:docname="dog2.svg"
   inkscape:version="0.92.4 (5da689c313, 2019-01-14)"
   inkscape:export-filename="C:\Users\Noel S. Soto Vargas\Pictures\Draws\dogsasha.png"
   inkscape:export-xdpi="96"
   inkscape:export-ydpi="96">
  <metadata
     id="metadata821">
    <rdf:RDF>
      <cc:Work
         rdf:about="">
        <dc:format>image/svg+xml</dc:format>
        <dc:type
           rdf:resource="http://purl.org/dc/dcmitype/StillImage" />
      </cc:Work>
    </rdf:RDF>
  </metadata>
  <defs
     id="defs819">
    <inkscape:path-effect
       effect="bspline"
       id="path-effect1021"
       is_visible="true"
       weight="33.333333"
       steps="2"
       helper_size="0"
       apply_no_weight="true"
       apply_with_weight="true"
       only_selected="false" />
    <inkscape:path-effect
       effect="bspline"
       id="path-effect997"
       is_visible="true"
       weight="33.333333"
       steps="2"
       helper_size="0"
       apply_no_weight="true"
       apply_with_weight="true"
       only_selected="false" />
    <inkscape:path-effect
       effect="bspline"
       id="path-effect979"
       is_visible="true"
       weight="33.333333"
       steps="2"
       helper_size="0"
       apply_no_weight="true"
       apply_with_weight="true"
       only_selected="false" />
    <inkscape:path-effect
       effect="spiro"
       id="path-effect911"
       is_visible="true" />
    <inkscape:path-effect
       effect="spiro"
       id="path-effect897"
       is_visible="true" />
    <inkscape:path-effect
       effect="bspline"
       id="path-effect893"
       is_visible="true"
       weight="33.333333"
       steps="2"
       helper_size="0"
       apply_no_weight="true"
       apply_with_weight="true"
       only_selected="false" />
    <inkscape:path-effect
       effect="spiro"
       id="path-effect856"
       is_visible="true" />
    <inkscape:path-effect
       effect="bspline"
       id="path-effect841"
       is_visible="true"
       weight="33.333333"
       steps="2"
       helper_size="0"
       apply_no_weight="true"
       apply_with_weight="true"
       only_selected="false" />
    <inkscape:path-effect
       effect="spiro"
       id="path-effect827"
       is_visible="true" />
    <inkscape:path-effect
       effect="spiro"
       id="path-effect856-8"
       is_visible="true" />
    <inkscape:path-effect
       effect="spiro"
       id="path-effect911-1"
       is_visible="true" />
    <inkscape:path-effect
       effect="spiro"
       id="path-effect911-1-1"
       is_visible="true" />
    <inkscape:path-effect
       effect="spiro"
       id="path-effect897-0"
       is_visible="true" />
  </defs>
  <sodipodi:namedview
     pagecolor="#ffffff"
     bordercolor="#666666"
     borderopacity="1"
     objecttolerance="10"
     gridtolerance="10"
     guidetolerance="10"
     inkscape:pageopacity="0"
     inkscape:pageshadow="2"
     inkscape:window-width="1366"
     inkscape:window-height="706"
     id="namedview817"
     showgrid="false"
     inkscape:zoom="2.4251465"
     inkscape:cx="149.30192"
     inkscape:cy="231.07058"
     inkscape:window-x="-8"
     inkscape:window-y="-8"
     inkscape:window-maximized="1"
     inkscape:current-layer="svg815"
     showguides="false" />
  <path
     style="fill:#f69d4a;stroke:#000000;stroke-width:1px;stroke-linecap:butt;stroke-linejoin:miter;stroke-opacity:1;fill-opacity:1"
     d="m 79.56001,149.08286 c 2.27789,-0.78562 7.775559,-2.04223 12.173334,-2.98459 4.397775,-0.94237 7.697077,-1.57081 10.523716,-4.71185 2.82664,-3.14103 5.18361,-8.79775 8.32495,-13.66658 3.14134,-4.86883 7.06909,-8.95369 10.60289,-12.80163 3.53379,-3.84794 6.67611,-7.46159 7.93231,-14.37138 1.25621,-6.909788 0.62773,-17.122753 -0.0791,-26.075724 -0.70682,-8.952972 -1.49228,-16.650414 -2.04204,-21.598164 -0.54976,-4.94775 -0.86395,-7.147073 2e-4,-8.40329 0.86416,-1.256216 2.90693,-1.570489 5.81128,-0.157542 2.90436,1.412948 6.67627,4.556206 9.58215,6.990864 2.90588,2.434657 4.94792,4.162539 6.8333,4.319161 1.88538,0.156623 3.61329,-1.257122 4.86919,-4.711183 1.2559,-3.45406 2.04177,-8.955193 0.70684,-13.902153 -1.33493,-4.946959 -4.79131,-9.345991 -7.77563,-12.644462 -2.98432,-3.298471 -5.49762,-5.497606 -8.71749,-7.303933 -3.21987,-1.806326 -7.14666,-3.219971 -10.91666,-4.319582 -3.77,-1.099611 -7.38224,-1.884881 -11.85937,-2.434734 -4.47713,-0.5498525 -9.81662,-0.8639401 -15.31466,-0.07862 -5.498028,0.78532 -11.15178,2.669904 -17.042931,3.376932 -5.89115,0.707029 -12.015825,0.2359 -18.377799,0.550005 -6.361974,0.314104 -12.958189,1.413474 -17.199389,2.198843 -4.241201,0.78537 -6.125791,1.256517 -8.95468,0.706511 -2.828889,-0.550007 -6.596367,-2.119789 -9.502077,-2.669763 -2.905709,-0.549974 -4.947431,-0.07881 -7.382941,1.178113 -2.435509,1.256921 -5.261264,3.297744 -7.146772,6.047086 -1.885508,2.749342 -2.827588,6.203636 -3.691766,13.509654 -0.864179,7.306018 -1.6492906,18.454609 -0.784858,24.188494 0.864433,5.733885 3.377413,6.048007 4.397966,5.341068 1.020554,-0.706939 0.549163,-2.43537 1.099166,-4.241581 0.550002,-1.80621 2.12138,-3.691864 3.377469,-4.398201 1.256089,-0.706337 2.199087,-0.234838 4.083105,2.669656 1.884018,2.904494 4.712591,8.247353 6.04788,11.781271 1.335289,3.533918 1.178224,5.261638 -1.71e-4,7.618695 -1.178395,2.357056 -3.376086,5.339636 -3.847571,9.896184 -0.471484,4.556548 0.784652,10.680212 2.355508,16.256836 1.570856,5.57663 3.455535,10.60244 6.597603,14.21569 3.142068,3.61325 7.539723,5.81208 10.681555,6.36145 3.141831,0.54938 5.026917,-0.55026 7.695466,1.41186 2.668549,1.96212 6.126393,6.99171 9.425066,11.7041 3.298673,4.71239 6.440067,9.11034 9.268114,11.15235 2.828047,2.04201 5.34116,1.72787 6.126494,1.41396 0.785335,-0.31392 -0.157537,-0.62821 2.120353,-1.41382 z"
     id="path839"
     inkscape:connector-curvature="0"
     inkscape:path-effect="#path-effect841"
     inkscape:original-d="m 76.339063,149.55412 c 5.498669,-1.25761 10.996338,-2.51422 16.493007,-3.76983 3.298901,-0.62917 6.598203,-1.25761 9.8958,-1.88492 2.35633,-5.65377 4.71329,-11.31049 7.06844,-16.96423 3.92706,-4.08411 7.85481,-8.16897 11.78072,-12.25195 3.14174,-3.61285 6.28405,-7.22651 9.42457,-10.83826 -0.62712,-10.207953 -1.25561,-20.420918 -1.88491,-30.629875 -0.78431,-7.697032 -1.56977,-15.394474 -2.35615,-23.09021 -0.31311,-2.199814 -0.6273,-4.399136 -0.94245,-6.597203 2.04221,-0.315033 4.08498,-0.629305 6.12597,-0.942458 3.76875,3.138791 7.54066,6.28205 11.30949,9.424576 2.04294,1.726794 4.08498,3.454677 6.12597,5.183516 1.72877,-1.414624 3.45668,-2.828372 5.18352,-4.241059 0.78589,-5.495204 1.57176,-10.996338 2.35614,-16.493007 -3.45397,-4.398239 -6.91035,-8.797271 -10.36703,-13.194406 -2.51214,-2.200002 -5.02544,-4.399135 -7.53966,-6.597203 -3.92602,-1.414726 -7.85281,-2.828373 -11.78072,-4.241059 -3.61227,-0.786495 -7.22451,-1.571763 -10.83826,-2.356144 C 111.05281,9.7551805 105.71332,9.4410929 100.37173,9.1279404 94.716992,11.012187 89.06324,12.896771 83.407495,14.782686 77.281221,14.310357 71.156546,13.839228 65.029572,13.368999 c -6.597191,1.098699 -13.193406,2.198068 -19.791609,3.298602 -1.884239,0.47031 -3.76883,0.941457 -5.654745,1.413686 -3.771183,-1.572743 -7.538661,-3.142525 -11.309491,-4.712288 -2.041261,0.470291 -4.082983,0.941458 -6.125974,1.413687 -2.827991,2.04216 -5.653746,4.082983 -8.482118,6.125974 -0.941835,3.456061 -1.883915,6.910355 -2.827373,10.367033 -0.784651,11.155238 -1.5697626,22.303829 -2.3561439,33.457244 2.5144599,0.313182 5.0274399,0.627305 7.5396609,0.942457 -0.470068,-1.728246 -0.941458,-3.456677 -1.413687,-5.183516 1.571148,-1.885177 3.142526,-3.77083 4.712288,-5.654746 0.942917,0.469959 1.885915,0.941458 2.827373,1.413687 2.827173,5.337326 5.655745,10.680186 8.482118,16.021778 -0.156087,1.726958 -0.313153,3.454678 -0.471229,5.183517 -2.199445,2.985318 -4.397135,5.967898 -6.597203,8.953347 1.258084,6.127284 2.51422,12.250948 3.76983,18.377919 1.88615,5.02607 3.770831,10.05188 5.654746,15.07932 4.399615,2.19831 8.79727,4.39714 13.194406,6.59721 1.885743,-1.10044 3.77083,-2.20007 5.654745,-3.2986 3.454512,5.02229 6.912356,10.05188 10.367033,15.07932 3.142658,4.39732 6.284051,8.79527 9.424576,13.1944 2.514328,-0.31516 5.02744,-0.6293 7.539661,-0.94245 -0.941043,-0.31502 -1.883915,-0.62931 -2.827373,-0.94246 z" />
  <path
     style="fill:#241c1c;stroke:#000000;stroke-width:1px;stroke-linecap:butt;stroke-linejoin:miter;stroke-opacity:1"
     d="m 104.61279,49.182387 c -2.58412,-0.352248 -5.307588,0.50394 -7.225308,2.271448 -1.91772,1.767507 -2.992721,4.412263 -2.851953,7.016475 0.140769,2.604211 1.494594,5.117679 3.591665,6.66817 2.097076,1.550491 4.896966,2.108119 7.428056,1.479372 1.82874,-0.454276 3.50347,-1.507602 4.70495,-2.959184 1.20148,-1.451581 1.92328,-3.293657 2.02781,-5.175071 0.10452,-1.881413 -0.40879,-3.792106 -1.44209,-5.367843 -1.03329,-1.575736 -2.58105,-2.80809 -4.34821,-3.462138 -0.60859,-0.225248 -1.24193,-0.383581 -1.88492,-0.471229 z"
     id="path854"
     inkscape:connector-curvature="0"
     inkscape:path-effect="#path-effect856"
     inkscape:original-d="m 104.61279,49.182387 c -0.62931,-0.156076 0.62931,11.622643 0.94246,17.435465 0.31315,5.812822 0.6293,-11.310491 0.94246,-16.964236 0.31315,-5.653746 -1.25561,-0.315153 -1.88492,-0.471229 z"
     transform="matrix(0.94854919,0,0,0.82059762,-2.2190164,8.3266966)" />
  <path
     style="fill:#241c1c;stroke:#000000;stroke-width:1px;stroke-linecap:butt;stroke-linejoin:miter;stroke-opacity:1"
     d="m 104.61279,49.182387 c -2.58412,-0.352248 -5.307588,0.50394 -7.225308,2.271448 -1.91772,1.767507 -2.992721,4.412263 -2.851953,7.016475 0.140769,2.604211 1.494594,5.117679 3.591665,6.66817 2.097076,1.550491 4.896966,2.108119 7.428056,1.479372 1.82874,-0.454276 3.50347,-1.507602 4.70495,-2.959184 1.20148,-1.451581 1.92328,-3.293657 2.02781,-5.175071 0.10452,-1.881413 -0.40879,-3.792106 -1.44209,-5.367843 -1.03329,-1.575736 -2.58105,-2.80809 -4.34821,-3.462138 -0.60859,-0.225248 -1.24193,-0.383581 -1.88492,-0.471229 z"
     id="path854-1"
     inkscape:connector-curvature="0"
     inkscape:path-effect="#path-effect856-8"
     inkscape:original-d="m 104.61279,49.182387 c -0.62931,-0.156076 0.62931,11.622643 0.94246,17.435465 0.31315,5.812822 0.6293,-11.310491 0.94246,-16.964236 0.31315,-5.653746 -1.25561,-0.315153 -1.88492,-0.471229 z"
     transform="matrix(0.94854919,0,0,0.82059762,-55.681024,11.021872)" />
  <path
     style="fill:#241c1c;stroke:#000000;stroke-width:1px;stroke-linecap:butt;stroke-linejoin:miter;stroke-opacity:1"
     d="m 200.7439,109.57742 c -0.15644,1.80625 -1.25598,2.74871 -1.72776,3.37742 -0.47179,0.62872 -0.31487,0.94257 2.90977,1.25714 3.22464,0.31458 9.49969,0.62833 14.44716,1.33517 4.94747,0.70683 8.56077,1.80653 12.17349,1.80635 3.61271,-1.8e-4 7.2261,-1.09991 10.36719,-2.27788 3.14109,-1.17796 5.81226,-2.43499 7.46097,-4.31964 1.64871,-1.88466 2.2773,-4.39901 1.33585,-4.79191 -0.94144,-0.3929 -3.45583,1.33574 -6.04817,2.74983 -2.59234,1.41408 -5.26142,2.51311 -8.71813,3.22023 -3.4567,0.70713 -7.69584,1.02114 -12.17328,0.62843 -4.47744,-0.3927 -9.18854,-1.49196 -12.01645,-3.14176 -2.82791,-1.64979 -3.77023,-3.84852 -3.06298,-5.81195 0.70726,-1.96344 3.06392,-3.691655 4.86962,-6.596773 1.8057,-2.905118 3.06291,-6.991057 3.45539,-9.974987 0.39249,-2.98393 -0.0789,-4.869394 -3.61138,-6.439494 -3.5325,-1.570099 -10.13218,-2.827181 -14.53024,-2.827519 -4.39806,-3.38e-4 -6.59687,1.256126 -8.08979,4.005867 -1.49292,2.749741 -2.27788,6.988516 -1.02089,10.523723 1.25699,3.535207 4.5547,6.361814 6.98971,7.932613 2.435,1.5708 4.0058,1.88496 5.1832,3.37613 1.1774,1.49117 1.96317,4.16277 1.80672,5.96901 z"
     id="path891"
     inkscape:connector-curvature="0"
     inkscape:path-effect="#path-effect893"
     inkscape:original-d="m 201.68592,110.44213 c -1.09853,0.94146 -2.19807,1.88391 -3.2986,2.82737 0.15823,0.31346 0.31515,0.62731 0.47123,0.94246 6.29205,0.31355 12.5671,0.6273 18.84915,0.94246 3.61321,1.09836 7.22651,2.19806 10.83826,3.2986 3.61312,-1.10034 7.22651,-2.20007 10.83826,-3.2986 2.67042,-1.2572 5.34159,-2.51422 8.01089,-3.76983 0.62902,-2.51309 1.25761,-5.02744 1.88492,-7.53966 -2.51105,1.72603 -5.02544,3.45467 -7.53966,5.18351 -2.67052,1.09904 -5.3396,2.19807 -8.01089,3.2986 -4.24198,0.3133 -8.48112,0.62731 -12.72318,0.94246 -4.71248,-1.10081 -9.42358,-2.20007 -14.13686,-3.2986 -0.94161,-2.20041 -1.88392,-4.39914 -2.82738,-6.5972 2.35663,-1.72846 4.71329,-3.456681 7.06844,-5.18352 1.257,-4.083029 2.51422,-8.168965 3.76983,-12.251948 -0.4701,-1.885364 -0.94146,-3.77083 -1.41369,-5.654745 -6.59373,-1.25714 -13.19341,-2.51422 -19.79161,-3.769831 -2.19833,1.255759 -4.39714,2.512221 -6.5972,3.769831 -0.78481,4.242343 -1.56977,8.481118 -2.35615,12.723177 3.3005,2.827137 6.59821,5.653745 9.89581,8.482116 1.57172,0.31315 3.14252,0.62731 4.71229,0.94246 0.78599,2.66799 1.57176,5.33959 2.35614,8.01089 z"
     transform="translate(-152.2069,1.4136864)" />
</svg>
